<svg id="Layer_1" data-name="Layer 1" xmlns="http://www.w3.org/2000/svg" viewBox="0 0 566.93 566.93"><defs><style>.cls-1{fill:#06a8b8;}.cls-2{fill:#79c9d5;}</style></defs><path class="cls-1" d="M406.68,378,243.34,324.77l-49.81-151.3-4.24-12.84L550.73,6.71a5.86,5.86,0,0,1,7.7,7.64Z"/><path class="cls-2" d="M333.19,554.35l21.08-50.28-55.19-17.86L322.25,554A5.86,5.86,0,0,0,333.19,554.35Z"/><polygon class="cls-2" points="394.13 409.01 257.59 364.82 285.9 447.64 366.93 473.87 394.13 409.01"/><path class="cls-2" d="M12.7,235.74l50.14-21.43,18.24,55.06-67.93-22.7A5.85,5.85,0,0,1,12.7,235.74Z"/><polygon class="cls-2" points="157.91 174.75 202.55 311.15 119.63 283.11 93.14 202.16 157.91 174.75"/></svg>